<svg xmlns="http://www.w3.org/2000/svg" viewBox="0 0 960 560" role="img" aria-hidden="true">
  <defs>
    <linearGradient id="bg" x1="0" y1="0" x2="1" y2="1">
      <stop offset="0%" stop-color="#f97316"/>
      <stop offset="100%" stop-color="#be185d"/>
    </linearGradient>
  </defs>
  <rect width="960" height="560" fill="url(#bg)"/>
  <rect x="120" y="100" width="720" height="360" rx="24" fill="rgba(255,255,255,.12)" stroke="rgba(255,255,255,.28)"/>
  <rect x="160" y="140" width="300" height="280" rx="16" fill="#fff" opacity=".95"/>
  <rect x="190" y="180" width="240" height="140" rx="12" fill="#fed7aa"/>
  <rect x="190" y="340" width="160" height="16" rx="8" fill="#fb923c"/>
  <rect x="190" y="370" width="120" height="12" rx="6" fill="#cbd5e1"/>
  <rect x="500" y="160" width="300" height="220" rx="16" fill="#831843"/>
  <rect x="530" y="190" width="80" height="80" rx="10" fill="#f472b6"/>
  <rect x="630" y="190" width="140" height="16" rx="8" fill="#fff" opacity=".85"/>
  <rect x="630" y="220" width="100" height="12" rx="6" fill="rgba(255,255,255,.5)"/>
  <circle cx="650" cy="420" r="50" fill="#fbbf24"/>
  <path d="M650 380v60M620 410h60" stroke="#fff" stroke-width="6" stroke-linecap="round"/>
</svg>
